<?xml version="1.0" standalone="no"?>
<!DOCTYPE svg PUBLIC "-//W3C//DTD SVG 20010904//EN"
 "http://www.w3.org/TR/2001/REC-SVG-20010904/DTD/svg10.dtd">
<svg version="1.0" xmlns="http://www.w3.org/2000/svg"
 width="700.000000pt" height="700.000000pt" viewBox="0 0 700.000000 700.000000"
 preserveAspectRatio="xMidYMid meet">
<metadata>
Created by potrace 1.14, written by Peter Selinger 2001-2017
</metadata>
<g transform="translate(0.000000,700.000000) scale(0.100000,-0.100000)"
fill="#000000" stroke="none">
<path d="M2580 5497 c-3 -3 -40 -7 -83 -11 -137 -12 -338 -58 -467 -107 -30
-11 -68 -25 -84 -31 -16 -6 -60 -26 -98 -44 -37 -19 -70 -34 -72 -34 -3 0 -40
-21 -82 -46 -318 -188 -552 -421 -751 -749 -81 -134 -189 -402 -217 -541 -3
-10 -9 -40 -15 -67 -6 -26 -14 -64 -16 -85 -3 -20 -8 -53 -11 -72 -14 -88 -21
-393 -10 -445 2 -11 7 -47 10 -80 16 -143 68 -345 128 -495 147 -372 418 -708
758 -941 104 -72 229 -140 350 -191 257 -109 521 -162 800 -161 98 0 239 8
285 17 11 2 40 7 65 11 70 12 73 12 174 39 53 14 144 44 204 67 145 56 136 54
195 29 65 -28 214 -80 246 -87 14 -2 28 -6 32 -9 8 -4 22 -7 172 -38 236 -47
534 -39 806 21 362 79 713 271 981 534 335 329 532 724 605 1209 10 67 13 385
4 465 -52 477 -251 896 -584 1230 -122 123 -141 140 -247 217 -223 164 -469
278 -738 341 -179 42 -255 51 -460 51 -149 1 -267 -6 -326 -18 -12 -2 -38 -7
-58 -10 -111 -18 -318 -80 -421 -126 l-67 -30 -112 44 c-61 25 -163 58 -226
75 -101 27 -153 37 -283 56 -45 7 -381 17 -387 12z m35 -1129 c-84 -164 -164
-405 -189 -568 -3 -19 -8 -44 -10 -56 -25 -119 -25 -425 -1 -584 36 -242 112
-474 220 -674 l35 -65 -58 5 c-268 24 -545 182 -714 408 -131 175 -199 373
-203 592 -11 510 349 945 860 1036 11 2 41 5 66 6 l46 3 -52 -103z"/>
</g>
</svg>
