<svg width="64" height="64" viewBox="0 0 64 64" fill="none" xmlns="http://www.w3.org/2000/svg">
<g clip-path="url(#clip0)">
<path d="M51.9975 36.692C53.6642 34.3071 54.6419 31.4051 54.6419 28.2746C54.6419 20.1497 48.0555 13.5632 39.9306 13.5632C33.2382 13.5632 27.5895 18.0321 25.8058 24.1484V40.9202H52.4558L51.9975 36.692Z" fill="#FFD900"/>
<path d="M54.6419 28.2746C54.6419 20.1497 48.0555 13.5632 39.9306 13.5632C39.4423 13.5632 38.9604 13.5899 38.4843 13.6363C45.9181 14.3746 51.7241 20.6464 51.7241 28.2746C51.7241 31.405 50.7464 34.3071 49.0796 36.692L49.5379 40.9202H52.4557L51.9973 36.692C53.6642 34.3071 54.6419 31.405 54.6419 28.2746V28.2746Z" fill="#FFBB00"/>
<path d="M63.0485 29.2259H58.8453C58.3198 29.2259 57.8939 28.8 57.8939 28.2744C57.8939 27.7489 58.3198 27.323 58.8453 27.323H63.0485C63.5739 27.323 63.9999 27.7489 63.9999 28.2744C63.9999 28.7999 63.5739 29.2259 63.0485 29.2259Z" fill="#FFD900"/>
<path d="M53.3061 15.8494C53.0627 15.8494 52.8191 15.7566 52.6334 15.5709C52.2618 15.1993 52.2618 14.5968 52.6334 14.2254L55.6056 11.2531C55.9771 10.8814 56.5796 10.8815 56.9512 11.253C57.3227 11.6245 57.3227 12.227 56.9512 12.5984L53.979 15.5707C53.7932 15.7564 53.5497 15.8494 53.3061 15.8494V15.8494Z" fill="#FFD900"/>
<path d="M39.9308 10.3072C39.4054 10.3072 38.9794 9.88138 38.9794 9.3558V5.15261C38.9794 4.62704 39.4054 4.20117 39.9308 4.20117C40.4563 4.20117 40.8822 4.62704 40.8822 5.15261V9.3558C40.8822 9.88138 40.4563 10.3072 39.9308 10.3072Z" fill="#FFD900"/>
<path d="M26.5541 15.8466C26.3106 15.8466 26.0671 15.7537 25.8813 15.568L22.9092 12.5958C22.5376 12.2242 22.5376 11.6218 22.9092 11.2503C23.2807 10.8788 23.8832 10.8788 24.2546 11.2503L27.2268 14.2224C27.5984 14.5941 27.5984 15.1964 27.2268 15.568C27.0411 15.7537 26.7975 15.8466 26.5541 15.8466Z" fill="#FFD900"/>
<path d="M32.6913 11.7479C32.3179 11.7479 31.9636 11.5268 31.8119 11.1603L31.0076 9.2186C30.8065 8.73312 31.037 8.17659 31.5225 7.97552C32.0079 7.77445 32.5647 8.00482 32.7656 8.49044L33.5699 10.4321C33.771 10.9176 33.5405 11.4741 33.055 11.6752C32.9359 11.7244 32.8125 11.7479 32.6913 11.7479V11.7479Z" fill="#FFA400"/>
<path d="M22.4517 21.9862C22.3304 21.9862 22.207 21.9628 22.088 21.9135L20.1463 21.1092C19.6608 20.9081 19.4303 20.3516 19.6314 19.8661C19.8325 19.3807 20.3891 19.1496 20.8745 19.3512L22.8162 20.1555C23.3016 20.3565 23.5321 20.9131 23.3311 21.3986C23.1794 21.7649 22.825 21.9862 22.4517 21.9862V21.9862Z" fill="#FFA400"/>
<path d="M59.3506 37.2703C59.2292 37.2703 59.1059 37.2469 58.9869 37.1976L57.0452 36.3933C56.5597 36.1922 56.3292 35.6357 56.5303 35.1502C56.7314 34.6649 57.2882 34.4339 57.7734 34.6353L59.7151 35.4396C60.2006 35.6407 60.4311 36.1972 60.23 36.6827C60.0783 37.049 59.724 37.2703 59.3506 37.2703V37.2703Z" fill="#FFA400"/>
<path d="M57.4097 21.9864C57.0363 21.9864 56.682 21.7653 56.5303 21.3988C56.3292 20.9134 56.5597 20.3568 57.0452 20.1558L58.9869 19.3515C59.4724 19.1504 60.0289 19.3809 60.23 19.8664C60.4311 20.3519 60.2006 20.9084 59.7151 21.1095L57.7734 21.9138C57.6544 21.9631 57.531 21.9864 57.4097 21.9864V21.9864Z" fill="#FFA400"/>
<path d="M47.1702 11.7478C47.0488 11.7478 46.9255 11.7244 46.8065 11.6751C46.321 11.474 46.0905 10.9175 46.2915 10.432L47.0958 8.49032C47.2969 8.00496 47.8535 7.77395 48.3389 7.9754C48.8244 8.17647 49.0549 8.733 48.8538 9.21848L48.0495 11.1602C47.8978 11.5264 47.5435 11.7478 47.1702 11.7478V11.7478Z" fill="#FFA400"/>
<path d="M51.3444 36.681H42.5269C42.159 36.681 41.8467 36.4171 41.7788 36.0555C40.4906 29.1835 34.4252 23.9953 27.1616 24.0721C19.0752 24.1578 12.6097 30.8426 12.6097 38.9295V40.1231C12.6097 40.5435 12.2689 40.8843 11.8485 40.8843H9.57597C4.36134 40.8843 0.0388963 45.0553 0.000204568 50.2698C-0.0387409 55.5258 4.21025 59.7988 9.45724 59.7988H51.4896C57.9025 59.7988 63.0958 54.5763 63.0481 48.1524C63.0009 41.7789 57.7181 36.681 51.3444 36.681V36.681Z" fill="#BBDEFB"/>
<path d="M51.3444 36.6809H48.4267C54.8003 36.6809 60.0831 41.7788 60.1304 48.1522C60.178 54.5762 54.9848 59.7988 48.5718 59.7988H51.4896C57.9026 59.7988 63.0958 54.5763 63.0481 48.1522C63.0009 41.7788 57.7181 36.6809 51.3444 36.6809Z" fill="#99E2FC"/>
<path d="M38.8612 36.0555C38.929 36.4172 39.2413 36.6811 39.6093 36.6811H42.527C42.1592 36.6811 41.8468 36.4172 41.779 36.0555C40.4907 29.1835 34.4254 23.9953 27.1617 24.0721C26.7257 24.0767 26.2946 24.1017 25.8688 24.1439C32.397 24.7896 37.6703 29.7029 38.8612 36.0555Z" fill="#99E2FC"/>
<path d="M18.9145 40.8843C19.4401 40.8843 19.866 40.4585 19.866 39.9329C19.866 39.4073 19.4401 38.9814 18.9145 38.9814H12.6097V40.123C12.6097 40.5435 12.2689 40.8842 11.8485 40.8842H9.57596C9.57507 40.8842 9.57431 40.8843 9.57343 40.8843H18.9145Z" fill="#64B5F6"/>
</g>
<defs>
<clipPath id="clip0">
<rect width="64" height="64" fill="white"/>
</clipPath>
</defs>
</svg>
