<svg width="64" height="64" viewBox="0 0 64 64" fill="none" xmlns="http://www.w3.org/2000/svg">
<path d="M21.7494 45.4769C21.7494 46.1166 21.4953 46.7301 21.043 47.1824C20.5906 47.6347 19.9772 47.8888 19.3375 47.8888C18.6978 47.8888 18.0843 47.6347 17.632 47.1824C17.1797 46.7301 16.9256 46.1166 16.9256 45.4769C16.9256 44.145 19.3375 41.2561 19.3375 41.2561C19.3375 41.2561 21.7494 44.145 21.7494 45.4769Z" fill="#87CEE9"/>
<path d="M34.4119 47.8888C34.4119 48.5285 34.1578 49.1419 33.7054 49.5943C33.2531 50.0466 32.6396 50.3007 32 50.3007C31.3603 50.3007 30.7468 50.0466 30.2945 49.5943C29.8422 49.1419 29.5881 48.5285 29.5881 47.8888C29.5881 46.5568 32 43.668 32 43.668C32 43.668 34.4119 46.5568 34.4119 47.8888Z" fill="#87CEE9"/>
<path d="M47.0743 45.4769C47.0743 46.1166 46.8202 46.7301 46.3679 47.1824C45.9156 47.6347 45.3021 47.8888 44.6624 47.8888C44.0228 47.8888 43.4093 47.6347 42.957 47.1824C42.5047 46.7301 42.2505 46.1166 42.2505 45.4769C42.2505 44.145 44.6624 41.2561 44.6624 41.2561C44.6624 41.2561 47.0743 44.145 47.0743 45.4769Z" fill="#87CEE9"/>
<path d="M27.7791 53.9186C27.7791 54.5583 27.525 55.1717 27.0727 55.6241C26.6204 56.0764 26.0069 56.3305 25.3672 56.3305C24.7275 56.3305 24.1141 56.0764 23.6618 55.6241C23.2094 55.1717 22.9553 54.5583 22.9553 53.9186C22.9553 52.5866 25.3672 49.6978 25.3672 49.6978C25.3672 49.6978 27.7791 52.5866 27.7791 53.9186Z" fill="#87CEE9"/>
<path d="M41.6476 53.9186C41.6476 54.5583 41.3935 55.1717 40.9412 55.6241C40.4888 56.0764 39.8754 56.3305 39.2357 56.3305C38.596 56.3305 37.9825 56.0764 37.5302 55.6241C37.0779 55.1717 36.8238 54.5583 36.8238 53.9186C36.8238 52.5866 39.2357 49.6978 39.2357 49.6978C39.2357 49.6978 41.6476 52.5866 41.6476 53.9186Z" fill="#87CEE9"/>
<path d="M47.0829 14.6693C44.3261 7.99641 36.7288 4.84131 30.1138 7.62222C25.5908 9.52364 22.5154 13.8331 22.163 18.7633C18.3406 19.2965 15.6704 22.8547 16.199 26.7107C16.6773 30.1998 19.6356 32.7969 23.1272 32.7934H47.0828C52.0441 32.7934 56.0661 28.7362 56.0661 23.7314C56.0661 18.7266 52.0443 14.6693 47.0829 14.6693Z" fill="#64B5F6"/>
<path d="M39.1489 18.7379C36.3921 12.1999 28.7948 9.10852 22.1799 11.8332C17.6569 13.6963 14.5815 17.9187 14.2291 22.7493C10.4067 23.2717 7.73647 26.758 8.26508 30.5361C8.74345 33.9547 11.7017 36.4993 15.1933 36.4959H39.1489C44.1102 36.4959 48.1322 32.5206 48.1322 27.617C48.1322 22.7133 44.1102 18.7379 39.1489 18.7379Z" fill="#BBDEFB"/>
</svg>
