<svg width="64" height="64" viewBox="0 0 64 64" fill="none" xmlns="http://www.w3.org/2000/svg">
<path d="M52.002 22.6698C48.3201 13.835 38.1733 9.65766 29.3384 13.3396C23.2975 15.857 19.19 21.5627 18.7193 28.0903C13.6142 28.7963 10.0479 33.5072 10.7539 38.6125C11.3928 43.232 15.3438 46.6706 20.0071 46.666H52.0019C58.6282 46.666 63.9999 41.2942 63.9999 34.6679C63.9999 28.0416 58.6284 22.6698 52.002 22.6698Z" fill="#64B5F6"/>
<path d="M41.3371 28.0025C37.6552 19.1677 27.5084 14.9904 18.6736 18.6723C12.6327 21.1898 8.52523 26.8955 8.05455 33.423C2.94939 34.129 -0.6169 38.84 0.089109 43.9453C0.728004 48.5648 4.67898 52.0034 9.34234 51.9987H41.3371C47.9634 51.9987 53.3351 46.627 53.3351 40.0007C53.3351 33.3744 47.9634 28.0025 41.3371 28.0025Z" fill="#BBDEFB"/>
</svg>
