<svg width="64" height="64" viewBox="0 0 64 64" fill="none" xmlns="http://www.w3.org/2000/svg">
<path d="M33.4266 57.9452V51.801C33.4266 50.9401 32.7286 50.2422 31.8677 50.2422C31.0068 50.2422 30.3089 50.9401 30.3089 51.801V57.9452C30.3089 58.8061 31.0068 59.5041 31.8677 59.5041C32.7286 59.5041 33.4266 58.8061 33.4266 57.9452Z" fill="#FFBB00"/>
<path d="M33.4266 12.4633V6.31909C33.4266 5.45817 32.7287 4.76025 31.8677 4.76025C31.0068 4.76025 30.3089 5.45817 30.3089 6.31909V12.4633C30.3089 13.3242 31.0068 14.0221 31.8677 14.0221C32.7287 14.0221 33.4266 13.3242 33.4266 12.4633Z" fill="#FFBB00"/>
<path d="M16.8574 44.9381L12.5129 49.2826C11.9042 49.8914 11.9042 50.8783 12.5129 51.4871C13.1217 52.0959 14.1087 52.0959 14.7174 51.4871L19.0619 47.1426C19.6707 46.5339 19.6707 45.5469 19.0619 44.9381C18.4531 44.3294 17.4662 44.3294 16.8574 44.9381Z" fill="#FFD900"/>
<path d="M49.018 12.7772L44.6735 17.1217C44.0648 17.7305 44.0648 18.7175 44.6735 19.3262C45.2823 19.935 46.2692 19.935 46.878 19.3262L51.2225 14.9817C51.8312 14.373 51.8312 13.386 51.2225 12.7772C50.6137 12.1685 49.6267 12.1685 49.018 12.7772Z" fill="#FFD900"/>
<path d="M12.1989 30.5735H6.05468C5.19376 30.5735 4.49585 31.2714 4.49585 32.1323C4.49585 32.9932 5.19376 33.6911 6.05468 33.6911H12.1989C13.0598 33.6911 13.7577 32.9932 13.7577 32.1323C13.7577 31.2714 13.0598 30.5735 12.1989 30.5735Z" fill="#FFBB00"/>
<path d="M57.6808 30.5735H51.5366C50.6757 30.5735 49.9778 31.2714 49.9778 32.1323C49.9778 32.9932 50.6757 33.6911 51.5366 33.6911H57.6808C58.5417 33.6911 59.2396 32.9932 59.2396 32.1323C59.2396 31.2714 58.5417 30.5735 57.6808 30.5735Z" fill="#FFBB00"/>
<path d="M19.062 17.1219L14.7175 12.7774C14.1088 12.1686 13.1218 12.1686 12.513 12.7774C11.9043 13.3861 11.9043 14.3731 12.513 14.9819L16.8575 19.3264C17.4663 19.9351 18.4532 19.9351 19.062 19.3264C19.6708 18.7176 19.6708 17.7306 19.062 17.1219Z" fill="#FFD900"/>
<path d="M51.2225 49.2825L46.878 44.938C46.2693 44.3293 45.2823 44.3293 44.6735 44.938C44.0648 45.5468 44.0648 46.5338 44.6735 47.1425L49.018 51.487C49.6267 52.0958 50.6137 52.0958 51.2225 51.487C51.8312 50.8783 51.8312 49.8913 51.2225 49.2825Z" fill="#FFD900"/>
<path d="M31.8674 47.0016C40.0794 47.0016 46.7366 40.3445 46.7366 32.1324C46.7366 23.9204 40.0794 17.2632 31.8674 17.2632C23.6553 17.2632 16.9982 23.9204 16.9982 32.1324C16.9982 40.3445 23.6553 47.0016 31.8674 47.0016Z" fill="#FFD900"/>
<path d="M31.8674 43.5406C38.1682 43.5406 43.2759 38.4329 43.2759 32.1321C43.2759 25.8314 38.1682 20.7236 31.8674 20.7236C25.5667 20.7236 20.4589 25.8314 20.4589 32.1321C20.4589 38.4329 25.5667 43.5406 31.8674 43.5406Z" fill="#FFBB00"/>
</svg>
