<svg width="48" height="48" viewBox="0 0 48 48" fill="none" xmlns="http://www.w3.org/2000/svg">
<path d="M22.5872 31.1232V12.583C22.5872 11.8063 21.9576 11.1768 21.1809 11.1768C20.4045 11.1768 19.7747 11.8063 19.7747 12.583V31.1232C17.3027 31.7516 15.4688 33.9957 15.4688 36.661C15.4688 39.8112 18.0311 42.3739 21.1809 42.3739C24.3307 42.3739 26.8934 39.8112 26.8934 36.661C26.8934 33.9957 25.0591 31.7516 22.5872 31.1232ZM21.1809 39.5614C19.582 39.5614 18.2812 38.2603 18.2812 36.661C18.2812 35.0614 19.582 33.7603 21.1809 33.7603C22.7802 33.7603 24.0809 35.0614 24.0809 36.661C24.0809 38.2603 22.7802 39.5614 21.1809 39.5614Z" fill="#00AEDB"/>
<path d="M28.1602 27.7244V6.97998C28.1602 3.1311 25.0294 0 21.1809 0C17.3328 0 14.202 3.1311 14.202 6.97998V27.7244C11.4598 29.8678 9.84375 33.1545 9.84375 36.6606C9.84375 42.9133 14.9297 48 21.1809 48C27.4325 48 32.5184 42.9133 32.5184 36.6606C32.5184 33.1545 30.9023 29.8678 28.1602 27.7244ZM21.1809 45.1875C16.4802 45.1875 12.6562 41.3624 12.6562 36.6606C12.6562 33.8324 14.0552 31.1935 16.3986 29.6016C16.7838 29.3397 17.0145 28.9039 17.0145 28.4381V6.97998C17.0145 4.68201 18.8837 2.8125 21.1809 2.8125C23.4785 2.8125 25.3477 4.68201 25.3477 6.97998V28.4381C25.3477 28.9039 25.5784 29.3397 25.9636 29.6016C28.307 31.1935 29.7059 33.8324 29.7059 36.6606C29.7059 41.3624 25.8816 45.1875 21.1809 45.1875Z" fill="#00AEDB"/>
<path d="M36.7372 22.4519H32.3789C31.6022 22.4519 30.9727 23.0814 30.9727 23.8582C30.9727 24.6349 31.6022 25.2644 32.3789 25.2644H36.7372C37.5135 25.2644 38.1434 24.6349 38.1434 23.8582C38.1434 23.0814 37.5135 22.4519 36.7372 22.4519V22.4519Z" fill="#00AEDB"/>
<path d="M36.7372 16.8259H32.3789C31.6022 16.8259 30.9727 17.4554 30.9727 18.2322C30.9727 19.0089 31.6022 19.6384 32.3789 19.6384H36.7372C37.5135 19.6384 38.1434 19.0089 38.1434 18.2322C38.1434 17.4554 37.5135 16.8259 36.7372 16.8259Z" fill="#00AEDB"/>
<path d="M36.7372 11.1997H32.3789C31.6022 11.1997 30.9727 11.8292 30.9727 12.606C30.9727 13.3827 31.6022 14.0122 32.3789 14.0122H36.7372C37.5135 14.0122 38.1434 13.3827 38.1434 12.606C38.1434 11.8292 37.5135 11.1997 36.7372 11.1997Z" fill="#00AEDB"/>
<path d="M32.3789 8.38623H36.7372C37.5135 8.38623 38.1434 7.75671 38.1434 6.97998C38.1434 6.20361 37.5135 5.57373 36.7372 5.57373H32.3789C31.6022 5.57373 30.9727 6.20361 30.9727 6.97998C30.9727 7.75671 31.6022 8.38623 32.3789 8.38623V8.38623Z" fill="#00AEDB"/>
</svg>
