<svg width="64" height="64" viewBox="0 0 64 64" fill="none" xmlns="http://www.w3.org/2000/svg">
<g clip-path="url(#clip0)">
<path d="M37.8119 49.9298C37.7361 49.6772 37.5088 49.4751 37.2561 49.4246L33.6184 48.6667L34.7047 41.8713C34.7552 41.5429 34.5784 41.2145 34.2752 41.0629C33.9721 40.9113 33.5931 41.0124 33.391 41.265L26.3177 49.6772C26.1661 49.8793 26.0904 50.1319 26.1661 50.3593C26.2419 50.6119 26.4187 50.7887 26.6461 50.8645L30.1828 52.0518L28.7681 58.5946C28.6924 58.923 28.8692 59.2767 29.1723 59.4283C29.2734 59.4788 29.3997 59.504 29.526 59.504C29.7281 59.504 29.9554 59.403 30.0817 59.2514L37.6856 50.6372C37.8624 50.4603 37.9129 50.1824 37.8119 49.9298Z" fill="#87CEE9"/>
</g>
<path d="M47.0829 14.6693C44.3261 7.99641 36.7288 4.84131 30.1138 7.62222C25.5908 9.52364 22.5154 13.8331 22.163 18.7633C18.3406 19.2965 15.6704 22.8547 16.199 26.7107C16.6773 30.1998 19.6356 32.7969 23.1272 32.7934H47.0828C52.0441 32.7934 56.0661 28.7362 56.0661 23.7314C56.0661 18.7266 52.0443 14.6693 47.0829 14.6693Z" fill="#64B5F6"/>
<path d="M39.1489 18.7379C36.3921 12.1999 28.7948 9.10852 22.1799 11.8332C17.6569 13.6963 14.5815 17.9187 14.2291 22.7493C10.4067 23.2717 7.73647 26.758 8.26508 30.5361C8.74345 33.9547 11.7017 36.4993 15.1933 36.4959H39.1489C44.1102 36.4959 48.1322 32.5206 48.1322 27.617C48.1322 22.7133 44.1102 18.7379 39.1489 18.7379Z" fill="#BBDEFB"/>
<defs>
<clipPath id="clip0">
<rect width="18.5124" height="18.5124" fill="white" transform="translate(22.7438 40.9917)"/>
</clipPath>
</defs>
</svg>
