<svg width="48" height="48" viewBox="0 0 48 48" fill="none" xmlns="http://www.w3.org/2000/svg">
<g clip-path="url(#clip0)">
<path d="M39.0622 29.5895C39.0622 39.7408 30.8029 48 20.6516 48C10.4994 48 2.24109 39.7408 2.24109 29.5895C2.24109 25.2747 3.76468 21.0799 6.53151 17.7758L20.6516 0L34.7708 17.7758C37.5386 21.0799 39.0622 25.2747 39.0622 29.5895V29.5895Z" fill="#4ABBF0"/>
<path d="M39.0622 29.5895C39.0622 39.7408 30.803 48 20.6517 48V0L34.7709 17.7758C37.5386 21.0799 39.0622 25.2747 39.0622 29.5895V29.5895Z" fill="#009BE5"/>
<path d="M45.7589 25.2727C45.7589 32.1945 40.1271 37.8263 33.2053 37.8263C26.2828 37.8263 20.6517 32.1945 20.6517 25.2727C20.6517 22.3305 21.6905 19.4702 23.5771 17.2172L33.2053 5.09644L42.8327 17.2172C44.72 19.4702 45.7589 22.3305 45.7589 25.2727Z" fill="#78D5F9"/>
<path d="M45.7588 25.2727C45.7588 32.1945 40.1271 37.8263 33.2053 37.8263V5.09644L42.8327 17.2172C44.72 19.4702 45.7588 22.3305 45.7588 25.2727Z" fill="#4ABBF0"/>
</g>
<defs>
<clipPath id="clip0">
<rect width="48" height="48" fill="white"/>
</clipPath>
</defs>
</svg>
