<svg width="48" height="48" viewBox="0 0 48 48" fill="none" xmlns="http://www.w3.org/2000/svg">
<path d="M30.3097 42.1287C27.271 42.1287 24.7989 39.6566 24.7989 36.6179C24.7989 34.2276 26.7435 32.2829 29.1339 32.2829V35.0954C28.2943 35.0954 27.6114 35.7784 27.6114 36.6179C27.6114 38.1057 28.8219 39.3162 30.3097 39.3162C32.7063 39.3162 34.656 37.3664 34.656 34.9699C34.656 31.2999 31.6702 28.3139 28 28.3139L33.1999 27.0603C35.7696 28.7553 37.4685 31.6679 37.4685 34.9699C37.4685 38.9172 34.257 42.1287 30.3097 42.1287V42.1287Z" fill="#12A8FF"/>
<path d="M5.00006 13.8716H17.0001V16.6841H5.00006V13.8716Z" fill="#86DDFF"/>
<path d="M5.00006 31.3162H21.3751V34.1287H5.00006V31.3162Z" fill="#6CBEEE"/>
<path d="M40.8411 11.6865C37.8024 11.6865 35.3303 14.1586 35.3303 17.1973C35.3303 19.5877 37.275 21.5323 39.6653 21.5323V18.7198C38.8258 18.7198 38.1428 18.0369 38.1428 17.1973C38.1428 15.7095 39.3533 14.499 40.8411 14.499C43.2378 14.499 45.1875 16.4488 45.1875 18.8454C45.1875 22.5155 42.2016 25.5013 38.5315 25.5013H24.6099L23.6723 26.9076L24.6099 28.3138H38.5315C43.7525 28.3138 48 24.0663 48 18.8454C48 14.898 44.7885 11.6865 40.8411 11.6865V11.6865Z" fill="#6CBEEE"/>
<path d="M0 25.5015H24.6098V28.314H0V25.5015Z" fill="#86DDFF"/>
<path d="M25.7786 8.68408C28.1751 8.68408 30.125 10.6339 30.125 13.0304C30.125 16.3114 27.738 19.0436 24.6099 19.5865L24.0473 21.0428L24.6099 22.43C29.2948 21.8648 32.9375 17.8653 32.9375 13.0304C32.9375 9.08308 29.726 5.87158 25.7786 5.87158C25.3775 5.87158 24.9868 5.91574 24.6099 5.99749L24.0473 7.4688L24.6099 8.95043C24.9636 8.7798 25.3601 8.68408 25.7786 8.68408V8.68408Z" fill="#12A8FF"/>
<path d="M23.469 19.6865H0V22.499H23.469C23.8552 22.499 24.2358 22.4752 24.6099 22.4301V19.5867C24.2389 19.6511 23.8582 19.6865 23.469 19.6865V19.6865Z" fill="#6CBEEE"/>
<path d="M20.2677 11.3825C20.2677 13.7728 22.2124 15.7175 24.6026 15.7175V12.905C23.7632 12.905 23.0802 12.222 23.0802 11.3825C23.0802 10.3131 23.7055 9.3869 24.6099 8.95059V5.99756C22.1308 6.53512 20.2677 8.74481 20.2677 11.3825V11.3825Z" fill="#6CBEEE"/>
</svg>
