<svg width="183" height="42" fill="none" xmlns="http://www.w3.org/2000/svg">
<path d="M67.9629 26.0918L68.7539 30.0645L69.7207 26.2676L75.2754 7.40625H77.2266L82.7109 26.2676L83.6602 30.0996L84.5039 26.0918L89.127 7.40625H91.3418L84.7852 33H82.7109L76.9102 12.9785L76.2598 10.4473L75.627 12.9785L69.6855 33H67.6113L61.0723 7.40625H63.2871L67.9629 26.0918ZM103.618 33.3516C102.001 33.3516 100.536 32.9531 99.2238 32.1562C97.923 31.3594 96.9094 30.252 96.1828 28.834C95.4562 27.4043 95.093 25.8047 95.093 24.0352V23.2793C95.093 21.4512 95.4445 19.8047 96.1477 18.3398C96.8625 16.875 97.8527 15.7266 99.1184 14.8945C100.384 14.0508 101.755 13.6289 103.232 13.6289C105.54 13.6289 107.368 14.4199 108.716 16.002C110.075 17.5723 110.755 19.7227 110.755 22.4531V23.6309H97.1848V24.0352C97.1848 26.1914 97.8 27.9902 99.0305 29.4316C100.273 30.8613 101.831 31.5762 103.706 31.5762C104.831 31.5762 105.821 31.3711 106.677 30.9609C107.544 30.5508 108.329 29.8945 109.032 28.9922L110.351 29.9941C108.804 32.2324 106.56 33.3516 103.618 33.3516ZM103.232 15.4219C101.65 15.4219 100.314 16.002 99.2238 17.1621C98.1457 18.3223 97.4895 19.8809 97.2551 21.8379H108.663V21.6094C108.605 19.7812 108.083 18.293 107.099 17.1445C106.114 15.9961 104.825 15.4219 103.232 15.4219ZM128.657 33C128.446 32.4023 128.311 31.5176 128.252 30.3457C127.514 31.3066 126.571 32.0508 125.422 32.5781C124.286 33.0938 123.079 33.3516 121.801 33.3516C119.973 33.3516 118.491 32.8418 117.354 31.8223C116.229 30.8027 115.666 29.5137 115.666 27.9551C115.666 26.1035 116.434 24.6387 117.969 23.5605C119.516 22.4824 121.666 21.9434 124.42 21.9434H128.235V19.7812C128.235 18.4219 127.813 17.3555 126.969 16.582C126.137 15.7969 124.918 15.4043 123.313 15.4043C121.848 15.4043 120.635 15.7793 119.674 16.5293C118.713 17.2793 118.233 18.1816 118.233 19.2363L116.123 19.2188C116.123 17.707 116.827 16.4004 118.233 15.2988C119.639 14.1855 121.368 13.6289 123.418 13.6289C125.539 13.6289 127.209 14.1621 128.428 15.2285C129.659 16.2832 130.291 17.7598 130.327 19.6582V28.6582C130.327 30.498 130.52 31.875 130.907 32.7891V33H128.657ZM122.047 31.4883C123.454 31.4883 124.707 31.1484 125.809 30.4688C126.922 29.7891 127.731 28.8809 128.235 27.7441V23.5605H124.473C122.375 23.584 120.735 23.9707 119.551 24.7207C118.368 25.459 117.776 26.4785 117.776 27.7793C117.776 28.8457 118.168 29.7305 118.954 30.4336C119.75 31.1367 120.782 31.4883 122.047 31.4883ZM141.021 9.11133V13.9805H144.959V15.7031H141.021V28.377C141.021 29.4316 141.209 30.2168 141.584 30.7324C141.97 31.248 142.609 31.5059 143.5 31.5059C143.851 31.5059 144.42 31.4473 145.205 31.3301L145.293 33.0527C144.742 33.252 143.992 33.3516 143.043 33.3516C141.601 33.3516 140.552 32.9355 139.896 32.1035C139.24 31.2598 138.912 30.0234 138.912 28.3945V15.7031H135.414V13.9805H138.912V9.11133H141.021ZM153.21 17.1973C153.901 16.0605 154.786 15.1816 155.864 14.5605C156.942 13.9395 158.12 13.6289 159.397 13.6289C161.436 13.6289 162.954 14.2031 163.95 15.3516C164.946 16.5 165.45 18.2227 165.462 20.5195V33H163.37V20.502C163.358 18.8027 162.995 17.5371 162.28 16.7051C161.577 15.873 160.446 15.457 158.887 15.457C157.587 15.457 156.432 15.8672 155.425 16.6875C154.429 17.4961 153.69 18.5918 153.21 19.9746V33H151.118V6H153.21V17.1973ZM181.465 15.7734C181.02 15.6914 180.545 15.6504 180.041 15.6504C178.729 15.6504 177.615 16.0195 176.701 16.7578C175.799 17.4844 175.154 18.5449 174.768 19.9395V33H172.676V13.9805H174.732L174.768 17.0039C175.881 14.7539 177.668 13.6289 180.129 13.6289C180.715 13.6289 181.178 13.7051 181.518 13.8574L181.465 15.7734Z" fill="white"/>
<path d="M14.7795 6.22051C6.63001 6.22051 0 12.8505 0 21C0 29.1495 6.63001 35.7795 14.7795 35.7795C22.929 35.7795 29.559 29.1495 29.559 21C29.559 12.8505 22.9289 6.22051 14.7795 6.22051ZM14.7795 28.3967C10.701 28.3967 7.38281 25.0786 7.38281 21C7.38281 16.9214 10.701 13.6033 14.7795 13.6033C18.8581 13.6033 22.1762 16.9214 22.1762 21C22.1762 25.0786 18.858 28.3967 14.7795 28.3967Z" fill="#00AEDB"/>
<path d="M27.2206 6.22051L26.4001 21L27.2205 35.7795C35.3699 35.7795 42 29.1494 42 21C42 12.8506 35.3699 6.22051 27.2206 6.22051Z" fill="#4980FA"/>
<path d="M12.4412 21C12.4412 29.1495 19.0712 35.7795 27.2206 35.7795V6.22051C19.0712 6.22051 12.4412 12.8505 12.4412 21Z" fill="#5D99FB"/>
</svg>
